# xmcd
#
# Track frame offsets: 
#        150
#        11484
#        28292
#        40632
#        59973
#        75719
#        90713
#        108725
#        120306
#        136683
#        149655
#        162790
#        175465
#        191141
#        208151
#
# Disc length: 3015 seconds
#
# Revision: 0
# Processed by: cddbd v1.5.2PL0 Copyright (c) Steve Scherf et al.
# Submitted via: ExactAudioCopy v0.99pb3
#
DISCID=da0bc50f
DTITLE=Wicked Wildcats - Captured
DYEAR=2010
DGENRE=Country
TTITLE0=Don't Be A Lemming Polka
TTITLE1=Walk This Way
TTITLE2=I Keep My Door Locked Tonight
TTITLE3=Frank Rolls Over Beethoven
TTITLE4=Little Cowboy Matt
TTITLE5=Blame On You
TTITLE6=Jim's Rodeo Polka
TTITLE7=Except My Baby Does
TTITLE8=Trail Of Tears
TTITLE9=Crazy
TTITLE10=Folsom Prison Blues
TTITLE11=Lady Madonna
TTITLE12=Jacky Joker
TTITLE13=A Good Reason For Getting The Blues
TTITLE14=Rag Doll
EXTD=
EXTT0=
EXTT1=
EXTT2=
EXTT3=
EXTT4=
EXTT5=
EXTT6=
EXTT7=
EXTT8=
EXTT9=
EXTT10=
EXTT11=
EXTT12=
EXTT13=
EXTT14=
PLAYORDER=
